<svg xmlns="http://www.w3.org/2000/svg" width="354.447" height="383.33" viewBox="0 0 354.447 383.33">
  <g id="Group_475" data-name="Group 475" transform="translate(-285.587 -649.723)">
    <path id="Path_91" data-name="Path 91" d="M498.015,706.756l6.394,6.4m-6.394,0,6.394-6.4m-6.394,18.775,6.394,6.4m-6.394,0,6.394-6.4m-6.394,18.776,6.394,6.4m-6.394,0,6.394-6.4m-6.394,18.775,6.394,6.4m-6.394,0,6.394-6.4m-6.394,18.775,6.394,6.4m-6.394,0,6.394-6.4m-6.394,18.776,6.394,6.4m-6.394,0,6.394-6.4m-6.394,18.775,6.394,6.4m-6.394,0,6.394-6.4m-6.394,37.55,6.394,6.4m-6.394,0,6.394-6.4m-25.641,18.776,6.393,6.4m-6.393,0,6.393-6.4m-6.393,37.551,6.393,6.4m-6.393,0,6.393-6.4m-6.393,18.775,6.393,6.4m-6.393,0,6.393-6.4m-6.393,37.551,6.393,6.4m-6.393,0,6.393-6.4M478.768,650.43l6.393,6.395m-6.393,0,6.393-6.395M478.768,669.2l6.393,6.4m-6.393,0,6.393-6.4m-6.393,37.551,6.393,6.4m-6.393,0,6.393-6.4m-6.393,18.775,6.393,6.4m-6.393,0,6.393-6.4m-6.393,18.776,6.393,6.4m-6.393,0,6.393-6.4m-6.393,37.55,6.393,6.4m-6.393,0,6.393-6.4m-6.393,18.776,6.393,6.4m-6.393,0,6.393-6.4m-6.393,37.548,6.393,6.4m-6.393,0,6.393-6.4m-6.393,18.776,6.393,6.4m-6.393,0,6.393-6.4m-25.64,18.776,6.392,6.4m-6.392,0,6.392-6.4m-6.392,18.775,6.392,6.4m-6.392,0,6.392-6.4m-6.392,18.776,6.392,6.4m-6.392,0,6.392-6.4m-6.392,75.1,6.392,6.4m-6.392,0,6.392-6.4m-6.392,18.775,6.392,6.4m-6.392,0,6.392-6.4M459.522,650.43l6.392,6.395m-6.392,0,6.392-6.395M459.522,669.2l6.392,6.4m-6.392,0,6.392-6.4m-6.392,18.776,6.392,6.4m-6.392,0,6.392-6.4m-6.392,18.775,6.392,6.4m-6.392,0,6.392-6.4m-6.392,18.775,6.392,6.4m-6.392,0,6.392-6.4m-6.392,18.776,6.392,6.4m-6.392,0,6.392-6.4m-6.392,18.775,6.392,6.4m-6.392,0,6.392-6.4m-6.392,37.551,6.392,6.4m-6.392,0,6.392-6.4m-6.392,18.775,6.392,6.4m-6.392,0,6.392-6.4m-6.392,18.773,6.392,6.4m-6.392,0,6.392-6.4M440.274,650.43l6.392,6.395m-6.392,0,6.392-6.395M440.274,669.2l6.392,6.4m-6.392,0,6.392-6.4m-6.392,18.776,6.392,6.4m-6.392,0,6.392-6.4m-6.392,18.775,6.392,6.4m-6.392,0,6.392-6.4m-6.392,18.775,6.392,6.4m-6.392,0,6.392-6.4m-6.392,18.776,6.392,6.4m-6.392,0,6.392-6.4m-6.392,18.775,6.392,6.4m-6.392,0,6.392-6.4m-6.392,18.775,6.392,6.4m-6.392,0,6.392-6.4m-6.392,37.551,6.392,6.4m-6.392,0,6.392-6.4m-6.392,18.773,6.392,6.4m-6.392,0,6.392-6.4m-6.392,18.776,6.392,6.4m-6.392,0,6.392-6.4M421.025,650.43l6.393,6.395m-6.393,0,6.393-6.395M421.025,669.2l6.393,6.4m-6.393,0,6.393-6.4m-6.393,18.776,6.393,6.4m-6.393,0,6.393-6.4m-6.393,18.775,6.393,6.4m-6.393,0,6.393-6.4m-6.393,18.775,6.393,6.4m-6.393,0,6.393-6.4m-6.393,18.776,6.393,6.4m-6.393,0,6.393-6.4m-6.393,18.775,6.393,6.4m-6.393,0,6.393-6.4m-6.393,18.775,6.393,6.4m-6.393,0,6.393-6.4m-6.393,18.776,6.393,6.4m-6.393,0,6.393-6.4m-6.393,18.775,6.393,6.4m-6.393,0,6.393-6.4M401.778,650.43l6.395,6.395m-6.395,0,6.395-6.395M401.778,669.2l6.395,6.4m-6.395,0,6.395-6.4m-6.395,18.776,6.395,6.4m-6.395,0,6.395-6.4m-6.395,18.775,6.395,6.4m-6.395,0,6.395-6.4m-6.395,18.775,6.395,6.4m-6.395,0,6.395-6.4m-6.395,56.326,6.395,6.4m-6.395,0,6.395-6.4m-6.395,18.776,6.395,6.4m-6.395,0,6.395-6.4M382.53,650.43l6.395,6.395m-6.395,0,6.395-6.395M382.53,669.2l6.395,6.4m-6.395,0,6.395-6.4m-6.395,18.776,6.395,6.4m-6.395,0,6.395-6.4m-6.395,18.775,6.395,6.4m-6.395,0,6.395-6.4m-6.395,18.775,6.395,6.4m-6.395,0,6.395-6.4m-6.395,18.776,6.395,6.4m-6.395,0,6.395-6.4m-6.395,18.775,6.395,6.4m-6.395,0,6.395-6.4m-6.395,18.775,6.395,6.4m-6.395,0,6.395-6.4m-6.395,18.776,6.395,6.4m-6.395,0,6.395-6.4m-6.395,18.775,6.395,6.4m-6.395,0,6.395-6.4M363.283,650.43l6.393,6.395m-6.393,0,6.393-6.395M363.283,669.2l6.393,6.4m-6.393,0,6.393-6.4m-6.393,18.776,6.393,6.4m-6.393,0,6.393-6.4m-6.393,18.775,6.393,6.4m-6.393,0,6.393-6.4m-6.393,37.551,6.393,6.4m-6.393,0,6.393-6.4m-6.393,18.775,6.393,6.4m-6.393,0,6.393-6.4m-6.393,37.551,6.393,6.4m-6.393,0,6.393-6.4m-25.638-150.2,6.392,6.395m-6.392,0,6.392-6.395M344.038,669.2l6.392,6.4m-6.392,0,6.392-6.4m-6.392,18.776,6.392,6.4m-6.392,0,6.392-6.4m-6.392,37.55,6.392,6.4m-6.392,0,6.392-6.4m-6.392,18.776,6.392,6.4m-6.392,0,6.392-6.4m-6.392,18.775,6.392,6.4m-6.392,0,6.392-6.4m-6.392,37.551,6.392,6.4m-6.392,0,6.392-6.4m-6.392,18.775,6.392,6.4m-6.392,0,6.392-6.4M324.788,650.43l6.393,6.395m-6.393,0,6.393-6.395M324.788,669.2l6.393,6.4m-6.393,0,6.393-6.4m-6.393,18.776,6.393,6.4m-6.393,0,6.393-6.4m-6.393,37.55,6.393,6.4m-6.393,0,6.393-6.4m-25.64-75.1,6.392,6.395m-6.392,0,6.392-6.395M305.542,669.2l6.392,6.4m-6.392,0,6.392-6.4m-6.392,18.776,6.392,6.4m-6.392,0,6.392-6.4m-6.392,18.775,6.392,6.4m-6.392,0,6.392-6.4m-25.64-56.326,6.393,6.395m-6.393,0,6.393-6.395M286.294,669.2l6.393,6.4m-6.393,0,6.393-6.4m-6.393,56.326,6.393,6.4m-6.393,0,6.393-6.4" transform="translate(0 0)" fill="none" stroke="#fff" stroke-miterlimit="10" stroke-width="2" opacity="0.5"/>
    <path id="Path_92" data-name="Path 92" d="M572.457,894.518l6.39,6.4m-6.39,0,6.39-6.4m-6.39,18.776,6.39,6.4m-6.39,0,6.39-6.4m-6.39,18.776,6.39,6.4m-6.39,0,6.39-6.4m-6.39,18.776,6.39,6.4m-6.39,0,6.39-6.4m-6.39,56.328,6.39,6.4m-6.39,0,6.39-6.4m-6.39,18.776,6.39,6.4m-6.39,0,6.39-6.4m-6.39-375.52,6.39,6.395m-6.39,0,6.39-6.395m-6.39,18.776,6.39,6.4m-6.39,0,6.39-6.4m-6.39,18.776,6.39,6.4m-6.39,0,6.39-6.4m-6.39,18.775,6.39,6.4m-6.39,0,6.39-6.4m-6.39,18.776,6.39,6.4m-6.39,0,6.39-6.4m-6.39,18.776,6.39,6.4m-6.39,0,6.39-6.4m-6.39,18.776,6.39,6.4m-6.39,0,6.39-6.4m-6.39,37.551,6.39,6.4m-6.39,0,6.39-6.4m-6.39,18.775,6.39,6.4m-6.39,0,6.39-6.4m-6.39,18.776,6.39,6.4m-6.39,0,6.39-6.4m-6.39,18.776,6.39,6.4m-6.39,0,6.39-6.4m-25.628,18.778,6.389,6.4m-6.389,0,6.389-6.4m-6.389,18.775,6.389,6.4m-6.389,0,6.389-6.4m-6.389,18.776,6.389,6.4m-6.389,0,6.389-6.4m-6.389,37.552,6.389,6.4m-6.389,0,6.389-6.4m-6.389,18.776,6.389,6.4m-6.389,0,6.389-6.4M553.219,650.43l6.389,6.395m-6.389,0,6.389-6.395m-6.389,18.776,6.389,6.4m-6.389,0,6.389-6.4m-6.389,18.776,6.389,6.4m-6.389,0,6.389-6.4m-6.389,18.775,6.389,6.4m-6.389,0,6.389-6.4m-6.389,18.776,6.389,6.4m-6.389,0,6.389-6.4m-6.389,18.776,6.389,6.4m-6.389,0,6.389-6.4m-6.389,18.776,6.389,6.4m-6.389,0,6.389-6.4m-6.389,18.775,6.389,6.4m-6.389,0,6.389-6.4m-6.389,18.776,6.389,6.4m-6.389,0,6.389-6.4m-6.389,18.775,6.389,6.4m-6.389,0,6.389-6.4m-6.389,18.776,6.389,6.4m-6.389,0,6.389-6.4m-6.389,18.776,6.389,6.4m-6.389,0,6.389-6.4M533.98,913.294l6.389,6.4m-6.389,0,6.389-6.4M533.98,932.07l6.389,6.4m-6.389,0,6.389-6.4M533.98,650.43l6.389,6.395m-6.389,0,6.389-6.395m-6.389,18.776,6.389,6.4m-6.389,0,6.389-6.4m-6.389,18.776,6.389,6.4m-6.389,0,6.389-6.4m-6.389,18.775,6.389,6.4m-6.389,0,6.389-6.4m-6.389,18.776,6.389,6.4m-6.389,0,6.389-6.4M533.98,744.31l6.389,6.4m-6.389,0,6.389-6.4m-6.389,18.776,6.389,6.4m-6.389,0,6.389-6.4m-6.389,18.775,6.389,6.4m-6.389,0,6.389-6.4m-6.389,37.551,6.389,6.4m-6.389,0,6.389-6.4m-6.389,18.776,6.389,6.4m-6.389,0,6.389-6.4m-6.389,18.776,6.389,6.4m-6.389,0,6.389-6.4m-25.63,18.778,6.39,6.4m-6.39,0,6.39-6.4m-6.39,37.551,6.39,6.4m-6.39,0,6.39-6.4m-6.39-262.864,6.39,6.395m-6.39,0,6.39-6.395m-6.39,18.776,6.39,6.4m-6.39,0,6.39-6.4m-6.39,18.776,6.39,6.4m-6.39,0,6.39-6.4m-6.39,18.775,6.39,6.4m-6.39,0,6.39-6.4m-6.39,18.776,6.39,6.4m-6.39,0,6.39-6.4m-6.39,18.776,6.39,6.4m-6.39,0,6.39-6.4m-6.39,18.776,6.39,6.4m-6.39,0,6.39-6.4m-6.39,18.775,6.39,6.4m-6.39,0,6.39-6.4m-6.39,18.776,6.39,6.4m-6.39,0,6.39-6.4m-6.39,18.775,6.39,6.4m-6.39,0,6.39-6.4m-6.39,18.776,6.39,6.4m-6.39,0,6.39-6.4m-6.39,18.776,6.39,6.4m-6.39,0,6.39-6.4M495.5,932.07l6.39,6.4m-6.39,0,6.39-6.4M495.5,650.43l6.39,6.395m-6.39,0,6.39-6.395m-6.39,18.776,6.39,6.4m-6.39,0,6.39-6.4m-6.39,18.776,6.39,6.4m-6.39,0,6.39-6.4m-6.39,18.775,6.39,6.4m-6.39,0,6.39-6.4m-6.39,18.776,6.39,6.4m-6.39,0,6.39-6.4M495.5,744.31l6.39,6.4m-6.39,0,6.39-6.4m-6.39,18.776,6.39,6.4m-6.39,0,6.39-6.4m-6.39,18.775,6.39,6.4m-6.39,0,6.39-6.4m-6.39,18.776,6.39,6.4m-6.39,0,6.39-6.4m-6.39,18.775,6.39,6.4m-6.39,0,6.39-6.4m-6.39,18.776,6.39,6.4m-6.39,0,6.39-6.4M476.261,650.43l6.39,6.395m-6.39,0,6.39-6.395m-6.39,18.776,6.39,6.4m-6.39,0,6.39-6.4m-6.39,18.776,6.39,6.4m-6.39,0,6.39-6.4m-6.39,18.775,6.39,6.4m-6.39,0,6.39-6.4m-6.39,37.553,6.39,6.4m-6.39,0,6.39-6.4m-6.39,18.776,6.39,6.4m-6.39,0,6.39-6.4M457.022,650.43l6.389,6.395m-6.389,0,6.389-6.395m-6.389,18.776,6.389,6.4m-6.389,0,6.389-6.4m-6.389,18.776,6.389,6.4m-6.389,0,6.389-6.4m-6.389,18.775,6.389,6.4m-6.389,0,6.389-6.4m-6.389,18.776,6.389,6.4m-6.389,0,6.389-6.4m-6.389,18.776,6.389,6.4m-6.389,0,6.389-6.4m-6.389,18.776,6.389,6.4m-6.389,0,6.389-6.4m-6.389,18.775,6.389,6.4m-6.389,0,6.389-6.4m-6.389,18.776,6.389,6.4m-6.389,0,6.389-6.4m-6.389,18.775,6.389,6.4m-6.389,0,6.389-6.4m-6.389,18.776,6.389,6.4m-6.389,0,6.389-6.4m-6.389,18.776,6.389,6.4m-6.389,0,6.389-6.4m-25.63,18.778,6.39,6.4m-6.39,0,6.39-6.4m-6.39,37.551,6.39,6.4m-6.39,0,6.39-6.4m-6.39,18.776,6.39,6.4m-6.39,0,6.39-6.4m-6.39,37.553,6.39,6.4m-6.39,0,6.39-6.4m-6.39-319.193,6.39,6.395m-6.39,0,6.39-6.395m-6.39,18.776,6.39,6.4m-6.39,0,6.39-6.4m-6.39,18.776,6.39,6.4m-6.39,0,6.39-6.4" transform="translate(60.478 0)" fill="none" stroke="#fff" stroke-miterlimit="10" stroke-width="2" opacity="0.5"/>
  </g>
</svg>
