<svg xmlns="http://www.w3.org/2000/svg" xmlns:xlink="http://www.w3.org/1999/xlink" width="1440" height="740" viewBox="0 0 1440 740">
  <defs>
    <clipPath id="clip-path">
      <path id="Path_209" data-name="Path 209" d="M-.407,675.015S352.619,660.383,776.941,722.9s662.652-66.508,662.652-66.508V0H-.407Z" fill="none"/>
    </clipPath>
    <linearGradient id="linear-gradient" y1="0.5" x2="1" y2="0.5" gradientUnits="objectBoundingBox">
      <stop offset="0" stop-color="#00c65e"/>
      <stop offset="0.999" stop-color="#79d97c"/>
    </linearGradient>
  </defs>
  <g id="Group_831" data-name="Group 831" transform="translate(9298 10798)">
    <g id="Group_829" data-name="Group 829" transform="translate(-9297.593 -10798)">
      <g id="Group_514" data-name="Group 514" clip-path="url(#clip-path)">
        <path id="Path_205" data-name="Path 205" d="M578.343,0S379.148,272.132,512,458.638c103.753,145.653,627.007,212.486,928-119.081V740H-.814V0Z" opacity="0.298" fill="url(#linear-gradient)"/>
        <path id="Path_206" data-name="Path 206" d="M279.057,0s-75.82,271.719,79.809,425.353S1152.4,746.587,1440,461.267V740H-.376V0Z" fill="#00c65e" opacity="0.4"/>
        <path id="Path_207" data-name="Path 207" d="M129.413,0S11.694,415.376,626.229,584.972,1440,531.1,1440,531.1V740H0V0Z" opacity="0.4" fill="url(#linear-gradient)"/>
        <path id="Path_208" data-name="Path 208" d="M0,0S-56.145,500.507,719.593,740H0Z" opacity="0.701" fill="url(#linear-gradient)"/>
      </g>
    </g>
  </g>
</svg>
