<svg id="Component_64_3" data-name="Component 64 – 3" xmlns="http://www.w3.org/2000/svg" width="25" height="20.313" viewBox="0 0 25 20.313">
  <path id="Path_442" data-name="Path 442" d="M25,66.4a10.685,10.685,0,0,1-2.953.809A5.1,5.1,0,0,0,24.3,64.381a10.242,10.242,0,0,1-3.25,1.241,5.125,5.125,0,0,0-8.866,3.5A5.277,5.277,0,0,0,12.3,70.3,14.507,14.507,0,0,1,1.741,64.934a5.127,5.127,0,0,0,1.575,6.85A5.061,5.061,0,0,1,1,71.153v.056a5.149,5.149,0,0,0,4.106,5.036,5.115,5.115,0,0,1-1.344.169,4.531,4.531,0,0,1-.97-.088A5.174,5.174,0,0,0,7.581,79.9a10.3,10.3,0,0,1-6.355,2.186A9.6,9.6,0,0,1,0,82.012a14.429,14.429,0,0,0,7.862,2.3A14.487,14.487,0,0,0,22.45,69.728c0-.227-.008-.445-.019-.663A10.224,10.224,0,0,0,25,66.4Z" transform="translate(0 -64)" fill="#00c65e"/>
</svg>
